<svg width="24" height="24" viewBox="0 0 24 24" fill="none" xmlns="http://www.w3.org/2000/svg">
<g clip-path="url(#clip0_83_1034)">
<path d="M20.19 23.25H3.81C2.99844 23.25 2.22011 22.9276 1.64625 22.3537C1.07239 21.7799 0.75 21.0016 0.75 20.19V18.75C0.75 18.5511 0.829018 18.3603 0.96967 18.2197C1.11032 18.079 1.30109 18 1.5 18C1.69891 18 1.88968 18.079 2.03033 18.2197C2.17098 18.3603 2.25 18.5511 2.25 18.75V20.19C2.25 20.6037 2.41436 21.0005 2.70691 21.2931C2.99947 21.5856 3.39626 21.75 3.81 21.75H20.19C20.6037 21.75 21.0005 21.5856 21.2931 21.2931C21.5856 21.0005 21.75 20.6037 21.75 20.19V18C21.7562 16.3055 21.1249 14.6706 19.9813 13.4201C18.8378 12.1696 17.2658 11.395 15.5775 11.25L13.92 11.1075L15.1275 9.96C15.4382 9.68079 15.7061 9.35731 15.9225 9C16.4359 8.10233 16.6244 7.05525 16.4564 6.03489C16.2884 5.01454 15.7741 4.08318 15 3.3975C14.5479 2.9893 14.0177 2.67713 13.4415 2.47988C12.8652 2.28264 12.2549 2.20443 11.6475 2.25C10.7836 2.31861 9.95793 2.63521 9.26963 3.16175C8.58133 3.68829 8.05971 4.40237 7.76744 5.21819C7.47517 6.03402 7.42468 6.91688 7.62204 7.76071C7.8194 8.60454 8.25622 9.37343 8.88 9.975L10.0875 11.13L8.4225 11.25C7.06439 11.3645 5.77274 11.8874 4.7175 12.75C4.58218 12.8642 4.41082 12.9269 4.23375 12.9269C4.05668 12.9269 3.88532 12.8642 3.75 12.75C3.67379 12.6754 3.61435 12.5855 3.57564 12.4862C3.53694 12.3868 3.51985 12.2804 3.52553 12.1739C3.53121 12.0675 3.55952 11.9634 3.60857 11.8688C3.65762 11.7741 3.72629 11.691 3.81 11.625C4.73896 10.8685 5.82155 10.3233 6.9825 10.0275C6.50946 9.30179 6.19771 8.483 6.06832 7.62645C5.93894 6.7699 5.99492 5.89555 6.2325 5.0625C6.44557 4.30742 6.80835 3.60291 7.29925 2.99089C7.79015 2.37887 8.39915 1.87185 9.09 1.5C10.0036 0.993321 11.0337 0.733965 12.0783 0.747596C13.1229 0.761227 14.1459 1.04737 15.0459 1.57772C15.946 2.10807 16.692 2.86423 17.2101 3.7714C17.7282 4.67857 18.0005 5.7053 18 6.75C18.0052 7.90788 17.6715 9.04199 17.04 10.0125C18.8106 10.4736 20.3792 11.5066 21.5022 12.9511C22.6252 14.3955 23.2396 16.1704 23.25 18V20.19C23.25 21.0016 22.9276 21.7799 22.3537 22.3537C21.7799 22.9276 21.0016 23.25 20.19 23.25Z" fill="black"/>
</g>
<defs>
<clipPath id="clip0_83_1034">
<rect width="24" height="24" fill="white"/>
</clipPath>
</defs>
</svg>
